<?xml version="1.0" encoding="utf-8"?>
<!-- Generator: Adobe Illustrator 22.1.0, SVG Export Plug-In . SVG Version: 6.00 Build 0)  -->
<svg version="1.1" id="Layer_1" xmlns="http://www.w3.org/2000/svg" xmlns:xlink="http://www.w3.org/1999/xlink" x="0px" y="0px"
	 viewBox="0 0 138.4 131.6" style="enable-background:new 0 0 138.4 131.6;" xml:space="preserve">
<style type="text/css">
	.st0{fill:#FFFFFF;}
	.st1{clip-path:url(#SVGID_2_);fill:#FFFFFF;}
	.st2{clip-path:url(#SVGID_4_);fill:#FFFFFF;}
	.st3{clip-path:url(#SVGID_6_);fill:#FFFFFF;}
	.st4{clip-path:url(#SVGID_8_);fill:#FFFFFF;}
</style>
<g>
	<g>
		<path class="st0" d="M79.2,13.9c-0.6-0.6-1.6-0.6-2.3,0c-0.6,0.6-0.6,1.6,0,2.3l1.6,1.6c0.6,0.6,1.6,0.6,2.3,0
			c0.6-0.6,0.6-1.6,0-2.3L79.2,13.9z"/>
		<path class="st0" d="M66.7,26.4c-0.6-0.6-1.6-0.6-2.3,0c-0.6,0.6-0.6,1.6,0,2.3l1.6,1.6c0.6,0.6,1.6,0.6,2.3,0
			c0.6-0.6,0.6-1.6,0-2.3L66.7,26.4z"/>
		<path class="st0" d="M86.4,28.4c-1.7-1.5-4.3-1.3-5.8,0.4c-1.5,1.7-1.3,4.3,0.4,5.8c5.8,5.1,7.8,9.3,9.4,15.3
			c1.2,4.5,1.4,11,0.4,16c-0.5,2.5,1.5,4.9,4,4.9c2,0,3.7-1.4,4-3.4c1.1-6.2,0.9-13.9-0.6-19.6C96.4,40.6,93.7,34.9,86.4,28.4
			L86.4,28.4z M95.7,66.8c-0.2,1.2-2,0.8-1.8-0.3c1-5.4,0.8-12.4-0.5-17.4c-1.7-6.5-3.9-11.3-10.3-16.9c-0.4-0.3-0.4-0.9-0.1-1.3
			s0.9-0.4,1.3-0.1c6.8,5.9,9.1,11,10.9,17.8C96.5,53.9,96.8,61.1,95.7,66.8L95.7,66.8z"/>
		<path class="st0" d="M46.4,82.1l1.6,1.6c0.6,0.6,1.6,0.6,2.3,0c0.6-0.6,0.6-1.6,0-2.3l-1.6-1.6c-0.6-0.6-1.6-0.6-2.3,0
			C45.8,80.5,45.8,81.5,46.4,82.1L46.4,82.1z"/>
		<path class="st0" d="M60.6,71.2c0.6,0.6,1.6,0.6,2.3,0c0.6-0.6,0.6-1.6,0-2.3l-1.6-1.6c-0.6-0.6-1.6-0.6-2.3,0
			c-0.6,0.6-0.6,1.6,0,2.3L60.6,71.2L60.6,71.2z"/>
		<g>
			<g>
				<defs>
					<rect id="SVGID_1_" x="9.1" y="7.1" width="109" height="83.4"/>
				</defs>
				<clipPath id="SVGID_2_">
					<use xlink:href="#SVGID_1_"  style="overflow:visible;"/>
				</clipPath>
				<path class="st1" d="M40.9,69.2c1.7,1.5,4.3,1.3,5.8-0.4c1.5-1.7,1.5-4.6-0.4-5.8c-6.2-3.9-7.8-9.1-9.4-15.3
					c-1.1-4.6-1.4-11-0.4-16c0.4-2.2-1.1-4.4-3.3-4.8s-4.4,1.1-4.8,3.3c-1.2,6.2-0.9,13.9,0.6,19.6C30.9,57,33.5,62.8,40.9,69.2
					L40.9,69.2z M31.6,30.8c0.1-0.5,0.6-0.8,1.1-0.7c0.5,0.1,0.8,0.6,0.7,1.1c-1,5.4-0.8,12.4,0.5,17.4c1.7,6.5,3.9,11.3,10.3,16.9
					c0.4,0.3,0.4,0.9,0.1,1.3c-0.3,0.4-0.9,0.4-1.3,0.1c-6.8-5.9-9.1-11-10.9-17.8C30.7,43.7,30.5,36.6,31.6,30.8L31.6,30.8z"/>
			</g>
			<g>
				<defs>
					<rect id="SVGID_3_" x="9.1" y="7.1" width="109" height="83.4"/>
				</defs>
				<clipPath id="SVGID_4_">
					<use xlink:href="#SVGID_3_"  style="overflow:visible;"/>
				</clipPath>
				<path class="st2" d="M112.8,39.4c1.6,0,2.9,0,4.1-1.2c1.3-1.2,1.6-3.2,0.9-4.8c-2.8-6-8.2-7.3-12.2-7.3c-1.6,0-3.1,0.2-4,0.4
					c-0.3-0.5-0.6-1-0.8-1.4c-1.9-3-3.5-5.4-5.2-7.4c-3.8-4.6-7.7-7.6-12-9.1C73.3,4.9,62,10.2,58.3,20.5
					c-3.5,9.7,1.1,20.6,10.5,24.8c0.4,0.2,0.8,0.4,1.3,0.5c0.4,0.1,0.8,0.3,1.4,0.6c-0.9,1.4-1.7,3.2-2.2,5.2
					c-0.9,3.8,0,7.5,2.5,10.6c2,2.5,6.2,1.8,7.3-1.2c0.7-1.9,2.1-3.2,4.4-4.1c1.1,2.7,1.8,5.9,2,9.6c0,0.3,0.1,0.7-0.3,0.8
					c-1.4,0.3-2.7,0.8-4,1.5c-4.5,2.6-6.9,7.6-6.2,12.8c0.1,0.4,0.3,0.8,0.6,1.1c4.2,3.1,9.7,3.3,14.2,0.7c0.6-0.4,1.2-0.8,1.7-1.2
					c0.3,0.7,0.6,1.3,0.9,1.9c2.3,4,6.6,6.4,11.1,6.4c0.9,0,2.1,0.1,2.7-0.7c3.1-4.2,3.3-9.7,0.7-14.2c-0.9-1.6-2.1-2.9-3.6-3.9
					c-0.2-0.1-0.2-0.4-0.1-0.6c0.6-0.9,1.2-2,1.6-3.1c3.2-8.1,4-17,2.4-25.7C108.9,40.3,110.8,39.4,112.8,39.4L112.8,39.4z
					 M81.8,53.9c-3.6,1.5-5.2,3.9-5.9,5.8c-0.3,0.7-1.3,1-1.8,0.3c-3.8-4.8-1.6-9.8,0.2-12.5c1.9,0.9,3.7,1.8,5.2,3.3
					C80.4,51.8,81.2,52.8,81.8,53.9L81.8,53.9z M101.8,66.7c-0.3,0.9-0.8,1.7-1.3,2.4c-1.1,1.6-0.7,3.8,0.8,5c1.1,0.8,2,1.8,2.7,3
					c1.9,3.2,1.8,7-0.1,10.1c-3.6,0.2-7.1-1.6-8.9-4.8c-0.7-1.1-1.1-2.4-1.3-3.7c-0.2-1.4-2-1.9-2.9-0.7c-0.8,1.1-1.8,1.9-2.9,2.6
					c-3.2,1.9-7,1.8-10.1-0.1c-0.2-3.6,1.6-7.1,4.8-8.9c0.9-0.5,1.9-0.9,3-1.2c2-0.4,3-2.3,2.8-4.2c-0.6-7.9-3-13.9-7.1-17.9
					c-2.8-2.7-6.7-4.2-10.3-5.5l0,0c0,0,0,0-0.1,0c0.1-1.3,0.4-2.6,0.7-3.9c1.7-6.2,5.8-11.6,11.3-15c0.8-0.5,1-1.4,0.5-2.2
					c-0.5-0.8-1.4-1-2.2-0.5c-4.4,2.7-8,6.5-10.4,11.1c-1.5,2.8-2.5,5.9-3,9C61.3,37.2,58.3,29,61,21.5c3.1-8.6,12.6-13.1,21.2-9.9
					c3,1.1,5.9,3.1,8.7,5.9c-0.1,0-0.1,0-0.2,0c-1.2,0.2-2.4,0.5-3.6,0.9c-0.8,0.3-1.3,1.2-1,2s1.2,1.3,2,1c1.5-0.5,3-0.8,4.5-1
					c0.2,0,0.5-0.1,0.7-0.1c1.4,1.8,2.9,3.9,4.4,6.4C105.2,38.6,107,53.7,101.8,66.7L101.8,66.7z M103.1,29.5
					c0.7-0.1,1.5-0.2,2.5-0.2c4.5,0,7.6,1.8,9.3,5.5c0.2,0.4,0.1,0.9-0.2,1.2c-0.5,0.5-1.2,0.2-1.8,0.2c-1.7,0-4,0.5-6.3,2.4
					C105.6,35.5,104.5,32.4,103.1,29.5L103.1,29.5z"/>
			</g>
			<g>
				<defs>
					<rect id="SVGID_5_" x="9.1" y="7.1" width="109" height="83.4"/>
				</defs>
				<clipPath id="SVGID_6_">
					<use xlink:href="#SVGID_5_"  style="overflow:visible;"/>
				</clipPath>
				<path class="st3" d="M21.7,71.5c1.6,0,3.1-0.2,4-0.4c0.3,0.5,0.6,1,0.8,1.4c1.9,3,3.5,5.4,5.2,7.4c3.8,4.6,7.7,7.6,12,9.1
					c2.2,0.8,4.5,1.2,6.7,1.2c8.1,0,15.7-5,18.6-13c1.7-4.7,1.6-9.9-0.4-14.5S63,54.4,58.5,52.4c-0.9-0.4-1.8-0.7-2.7-1.1
					c0.9-1.4,1.7-3.2,2.2-5.2c0.9-3.8,0-7.5-2.5-10.6c-2-2.5-6.2-1.8-7.3,1.2c-0.7,1.9-2.1,3.2-4.4,4.1c-1.1-2.7-1.8-5.9-2-9.6
					c0-0.3-0.1-0.7,0.3-0.8c1.4-0.3,2.7-0.8,4-1.5c4.5-2.6,6.9-7.6,6.2-12.8c-0.1-0.4-0.3-0.8-0.6-1.1c-4.2-3.1-9.7-3.3-14.2-0.7
					c-0.6,0.4-1.2,0.8-1.7,1.2c-0.3-0.7-0.6-1.3-0.9-1.9c-2.6-4.5-7.6-6.9-12.8-6.3c-0.4,0.1-0.8,0.3-1.1,0.6
					c-3.1,4.2-3.3,9.7-0.7,14.2c0.9,1.6,2.1,2.9,3.6,3.9c0.2,0.1,0.2,0.4,0.1,0.6c-0.6,0.9-1.2,2-1.6,3.1c-3.2,8.1-4,17-2.4,25.7
					c-1.7,1.9-3.6,2.8-5.5,2.8c-0.4,0-0.7-0.1-1.1-0.1c-3,0-5.1,3.3-3.8,6C12.4,70.3,17.7,71.5,21.7,71.5L21.7,71.5z M45.4,43.7
					c3.6-1.5,5.2-3.9,5.9-5.8c0.3-0.7,1.3-1,1.8-0.3c3.8,4.8,1.6,9.8-0.2,12.5c-1.9-0.9-3.7-1.8-5.2-3.3
					C46.9,45.9,46.1,44.9,45.4,43.7L45.4,43.7z M25.4,31c0.3-0.9,0.8-1.7,1.3-2.4c1.1-1.6,0.7-3.8-0.8-5c-1.1-0.8-2-1.8-2.7-3
					c-1.9-3.2-1.8-7,0.1-10.1c3.6-0.2,7.1,1.6,8.9,4.8c0.7,1.1,1.1,2.4,1.3,3.7c0.2,1.4,2,1.9,2.9,0.7c0.8-1.1,1.8-1.9,2.9-2.6
					c3.2-1.9,7-1.8,10.1,0.1c0.2,3.6-1.6,7.1-4.8,8.9c-0.9,0.5-1.9,0.9-3,1.2c-2,0.4-3,2.2-2.8,4.2c0.5,7.4,3,16,9.9,20
					c2.9,1.7,7.5,3.5,7.6,3.5c0,0.1,0,0.3,0,0.4c-0.4,3.1-1.4,6.1-2.8,8.8c-1.7,3.1-4,5.8-6.7,7.9c-0.7,0.5-0.8,1.5-0.3,2.2
					s1.6,0.8,2.2,0.3c3.1-2.4,5.7-5.5,7.6-9c1.6-2.9,2.6-6,3.1-9.3c6.5,4.1,9.5,12.3,6.8,19.8c-3.1,8.6-12.6,13.1-21.3,9.9
					c-3-1.1-5.9-3-8.7-5.9l0,0c2.3-0.4,4.5-1.1,6.7-2.1c0.8-0.4,1.2-1.3,0.8-2.1c-0.4-0.8-1.3-1.2-2.1-0.8c-1.9,0.8-3.8,1.5-5.8,1.8
					c-0.7,0.1-1.3,0.2-2,0.3c-1.4-1.8-2.9-3.9-4.4-6.4c-2.9-4.7-4.9-9.9-6-15.3C21.7,47.4,22.3,38.8,25.4,31L25.4,31z M13.4,61.4
					c0.4,0,0.7,0.1,1.1,0.1c1.7,0,4-0.5,6.4-2.4c0.8,3.1,1.9,6.1,3.4,9.1c-0.7,0.1-1.5,0.2-2.5,0.2c-4.5,0-7.6-1.8-9.3-5.5
					C12.1,62.2,12.6,61.4,13.4,61.4L13.4,61.4z"/>
			</g>
		</g>
	</g>
	<g>
		<g>
			<g>
				<defs>
					<rect id="SVGID_7_" x="9.1" y="33.8" width="120.7" height="96.1"/>
				</defs>
				<clipPath id="SVGID_8_">
					<use xlink:href="#SVGID_7_"  style="overflow:visible;"/>
				</clipPath>
				<path class="st4" d="M121.3,99.5L121.3,99.5l-17-2.4c-0.1,0-0.1,0-0.2,0c-2.6-0.1-5.2-0.1-7.8,0.1h-0.1l-36.5,4.7
					c-4.6,0.3-8.3,3.9-8.7,8.4l-29.5-9.1c-5-1.5-10.2,1.3-11.7,6.2c-1.5,5,1.3,10.2,6.2,11.7l0,0l28,8.3c5,1.5,10.2,2.2,15.3,2.2
					c2.1,0,4.1-0.1,6.2-0.4l36.3-4.2h0.1c1.9-0.3,3.8-0.3,5.7,0l11.4,1.8c0.5,0.1,1,0.1,1.5,0.1c4.6,0,8.6-3.3,9.4-7.9
					c0-0.1,0-0.3,0-0.4v-9.8C129.7,104.2,126.4,100.5,121.3,99.5L121.3,99.5z M124.9,118.5c-0.5,2.4-2.9,4-5.4,3.6l-11.4-1.8
					c-2.4-0.4-4.8-0.4-7.2,0l-36.3,4.2c-6.6,0.8-13.2,0.2-19.6-1.7l-27.9-8.3c-2.4-0.7-3.8-3.3-3-5.7c0.7-2.4,3.3-3.8,5.7-3l32,9.9
					c1.6,2.9,4.7,4.9,8.3,4.9c0.2,0,0.6,0,0.7,0l14.7-1.9c1.3-0.2,2.2-1.4,2.1-2.7c-0.2-1.3-1.4-2.2-2.7-2.1l-14.6,1.9
					c-2.5,0.1-4.5-1.8-4.7-4.2c-0.1-1.2,0.4-2.4,1.2-3.3s1.9-1.5,3.2-1.5c0.1,0,0.1,0,0.2,0l36.6-4.7c2.3-0.2,4.7-0.2,7-0.1
					l16.8,2.4c2.8,0.6,4.5,2.3,4.5,4.6v9.5H124.9z"/>
			</g>
		</g>
		<path class="st0" d="M84.7,112.5l-3.3,0.4c-1.3,0.2-2.2,1.4-2.1,2.7c0.2,1.2,1.2,2.1,2.4,2.1c0.1,0,0.2,0,0.3,0l3.3-0.4
			c1.3-0.2,2.2-1.4,2.1-2.7C87.2,113.3,86,112.4,84.7,112.5L84.7,112.5z"/>
	</g>
</g>
</svg>
